<?xml version="1.0" standalone="no"?>
<!DOCTYPE svg PUBLIC "-//W3C//DTD SVG 20010904//EN"
 "http://www.w3.org/TR/2001/REC-SVG-20010904/DTD/svg10.dtd">
<svg version="1.0" xmlns="http://www.w3.org/2000/svg"
 width="900.000000pt" height="585.000000pt" viewBox="0 0 900.000000 585.000000"
 preserveAspectRatio="xMidYMid meet">
<metadata>
Created by potrace 1.10, written by Peter Selinger 2001-2011
</metadata>
<g transform="translate(0.000000,585.000000) scale(0.100000,-0.100000)"
fill="#d9dfee" stroke="none">
<path d="M6215 5761 c-37 -13 -58 -28 -79 -58 -26 -37 -29 -50 -30 -125 0 -73
3 -88 26 -123 68 -104 188 -160 296 -136 83 18 166 14 204 -9 19 -11 55 -49
81 -84 50 -67 125 -175 142 -204 6 -9 28 -44 50 -77 22 -33 44 -68 50 -77 13
-21 94 -150 117 -186 10 -15 22 -36 28 -47 6 -11 19 -33 30 -50 85 -133 180
-342 180 -395 -1 -35 -37 -113 -50 -105 -6 3 -10 47 -10 99 0 90 -1 94 -26
111 -32 20 -82 76 -107 119 -60 100 -156 152 -221 121 -40 -19 -55 -61 -37
-108 15 -39 67 -38 106 3 27 28 30 29 47 13 10 -9 28 -37 40 -62 18 -40 21
-66 22 -196 1 -152 -1 -162 -49 -325 -7 -25 -21 -89 -31 -143 -17 -94 -17
-102 -1 -165 20 -74 36 -97 86 -118 82 -34 141 -3 141 74 0 36 -4 44 -25 54
-22 10 -30 8 -55 -10 -16 -12 -38 -22 -50 -22 -18 0 -20 6 -20 65 0 65 4 78
64 205 59 128 142 216 167 179 14 -20 3 -445 -15 -539 -7 -41 -19 -88 -27
-105 -19 -42 -59 -74 -94 -75 -16 0 -52 -7 -79 -15 -27 -8 -62 -15 -77 -15
-15 0 -40 -10 -55 -23 -23 -20 -25 -26 -14 -43 12 -20 23 -21 364 -22 193 0
417 -4 497 -8 141 -6 147 -6 168 15 27 27 27 46 -4 77 -23 23 -32 24 -107 23
-97 -2 -128 8 -157 50 -52 72 -56 114 -53 546 3 329 6 404 18 422 8 13 70 80
138 150 114 118 125 126 141 113 71 -59 70 -247 -1 -274 -18 -7 -34 0 -34 15
0 5 -10 23 -22 39 -17 23 -30 30 -55 30 -30 0 -36 -5 -49 -36 -19 -46 -7 -80
42 -124 19 -16 34 -33 34 -37 0 -4 -14 -24 -31 -43 -48 -56 -62 -96 -47 -139
26 -75 95 -158 115 -138 3 4 -2 31 -11 62 -19 60 -15 125 10 146 8 6 14 16 14
21 0 5 26 42 58 81 79 98 89 115 103 185 13 60 5 116 -22 162 -5 8 -22 41 -38
73 -30 61 -30 81 3 126 30 39 96 176 108 221 5 19 13 86 17 147 9 131 5 122
159 315 55 69 122 141 149 161 61 44 142 77 192 77 20 0 71 9 111 19 101 27
123 59 75 107 l-26 26 -432 -5 c-435 -4 -555 -13 -587 -43 -11 -11 -12 -16 -2
-26 14 -14 142 -47 183 -48 38 0 110 -34 139 -65 23 -24 25 -35 25 -110 0 -67
-4 -87 -19 -104 -11 -12 -23 -21 -28 -21 -5 0 -42 28 -82 63 -144 124 -167
141 -218 163 -41 17 -58 31 -74 60 -27 53 -52 54 -86 4 -21 -30 -36 -40 -65
-45 -21 -4 -63 -14 -92 -22 -30 -9 -91 -16 -135 -16 -69 -1 -88 2 -131 25
l-50 27 -22 -21 c-17 -16 -23 -33 -23 -63 0 -49 22 -82 66 -101 30 -12 39 -12
70 1 75 31 93 8 57 -73 -25 -57 -22 -184 6 -242 59 -120 82 -142 276 -270 12
-8 43 -28 69 -43 25 -16 46 -36 46 -45 0 -33 -79 -152 -101 -152 -15 0 -69 59
-69 75 0 4 -12 24 -27 44 -16 20 -33 45 -40 56 -14 24 -90 145 -115 183 -10
15 -22 36 -28 47 -13 24 -27 47 -62 101 -14 23 -35 56 -45 75 -18 32 -54 92
-81 134 -6 11 -17 29 -22 40 -6 11 -19 34 -30 50 -34 53 -83 160 -82 178 1 23
56 119 82 142 37 34 19 75 -33 75 -19 0 -54 -20 -110 -61 -45 -34 -86 -67 -92
-73 -39 -44 -270 -196 -298 -196 -7 0 -18 -5 -24 -11 -6 -6 -46 -18 -88 -26
-61 -11 -84 -12 -113 -2 -66 21 -93 58 -76 103 7 18 45 21 61 5 5 -5 24 -11
41 -11 59 -2 104 90 82 168 -14 50 -34 71 -87 90 -49 17 -58 17 -118 -5z
m1417 -281 c12 -16 25 -30 29 -30 5 0 29 14 55 31 l46 32 43 -21 c56 -27 171
-135 196 -183 35 -69 29 -86 -103 -284 -84 -127 -145 -207 -163 -218 -10 -5
-35 6 -76 33 -33 22 -65 40 -70 40 -6 0 -9 10 -7 22 2 16 13 25 38 32 53 14
141 77 175 125 27 38 29 50 30 121 0 71 -3 82 -30 122 -83 117 -235 116 -318
-2 -59 -84 45 -233 131 -189 68 35 79 86 31 139 -24 25 -29 38 -22 49 14 23
63 25 101 5 40 -21 57 -75 47 -151 -6 -47 -13 -60 -56 -103 -54 -54 -100 -68
-184 -56 -125 19 -223 176 -193 308 21 91 154 206 240 207 30 1 42 -5 60 -29z
m425 -529 c-9 -72 -69 -213 -110 -258 -26 -29 -38 -29 -67 2 -21 22 -23 30
-14 53 16 41 176 252 187 245 5 -3 7 -22 4 -42z m-195 -328 c28 -25 22 -45
-34 -104 -72 -75 -135 -122 -154 -115 -22 8 -11 37 44 121 77 119 102 136 144
98z"/>
<path d="M893 5743 c-37 -26 -120 -93 -147 -119 -30 -29 -190 -136 -247 -166
-67 -34 -175 -67 -222 -68 -67 0 -145 70 -120 108 15 24 37 26 79 6 44 -21 59
-14 91 42 38 65 27 140 -27 189 -18 16 -36 20 -99 20 -93 0 -124 -17 -157 -90
-58 -123 0 -262 136 -332 60 -30 104 -34 250 -19 96 10 135 -5 190 -75 41 -52
262 -383 316 -472 16 -27 37 -61 46 -75 10 -15 22 -36 28 -47 6 -11 19 -33 30
-50 11 -16 24 -39 30 -50 6 -11 20 -35 31 -54 11 -19 36 -66 56 -105 19 -39
41 -84 49 -99 20 -40 19 -180 -1 -197 -8 -7 -22 -9 -31 -6 -13 5 -15 15 -10
49 21 129 22 121 -21 152 -22 16 -55 51 -74 77 -95 136 -120 158 -192 165 -67
7 -107 -20 -107 -71 0 -64 56 -85 108 -41 17 14 37 25 45 25 24 0 53 -60 70
-148 21 -103 21 -174 2 -260 -15 -64 -21 -85 -61 -231 -12 -44 -18 -100 -19
-175 0 -97 3 -115 22 -146 28 -45 71 -70 121 -70 51 0 82 34 82 89 0 64 -43
81 -90 36 l-26 -25 -22 20 c-12 12 -22 31 -22 43 0 60 107 297 165 365 35 40
74 56 75 30 1 -7 1 -123 0 -258 -1 -368 -20 -428 -147 -461 -37 -10 -81 -19
-98 -19 -16 0 -49 -9 -72 -20 -34 -15 -43 -24 -43 -43 0 -34 27 -39 180 -31
70 4 286 1 479 -6 337 -12 352 -12 372 6 13 12 19 28 17 48 -4 45 -37 58 -125
51 -103 -9 -141 12 -186 105 -22 44 -22 50 -20 479 l3 433 37 42 c92 103 216
225 234 229 13 4 25 -5 41 -31 31 -51 33 -188 4 -221 -24 -27 -57 -24 -72 6
-15 32 -45 63 -59 63 -7 0 -24 -9 -39 -21 -20 -16 -26 -29 -26 -59 0 -31 7
-44 40 -74 22 -20 40 -41 40 -48 0 -6 -18 -35 -40 -64 -47 -62 -51 -102 -19
-164 22 -43 74 -100 90 -100 14 0 10 53 -6 74 -39 51 2 149 107 261 16 16 42
58 58 92 43 90 41 152 -6 246 -19 40 -40 76 -45 82 -21 22 -7 66 51 160 64
102 90 191 90 301 0 100 17 154 66 209 14 17 52 64 85 106 71 93 139 162 193
197 47 29 161 62 220 63 51 0 126 30 143 56 12 18 11 24 -11 49 l-24 29 -289
3 c-295 4 -694 -13 -726 -30 -11 -6 -17 -18 -15 -31 3 -22 22 -28 172 -56 96
-17 145 -46 168 -99 22 -49 20 -113 -4 -164 -22 -47 -49 -36 -174 71 -78 67
-130 104 -165 117 -43 16 -55 26 -73 61 -11 23 -28 43 -37 43 -9 0 -30 -18
-48 -40 -17 -22 -39 -40 -48 -40 -9 0 -39 -6 -67 -14 -68 -19 -185 -40 -214
-38 -13 1 -46 13 -74 27 -72 36 -92 34 -106 -14 -14 -45 -1 -96 30 -123 25
-22 86 -23 124 -3 61 31 63 24 29 -85 -27 -87 -29 -143 -9 -203 10 -28 24 -59
31 -68 7 -8 13 -20 13 -26 0 -33 218 -207 335 -268 33 -17 30 -52 -12 -115
-44 -68 -59 -77 -85 -53 -16 14 -92 123 -123 175 -10 18 -115 186 -147 236
-23 37 -45 73 -58 97 -5 11 -19 34 -30 50 -11 17 -24 39 -30 50 -6 11 -19 34
-30 50 -11 17 -24 39 -30 50 -6 11 -19 34 -30 50 -10 17 -29 50 -42 75 -12 25
-29 53 -37 63 -27 33 -18 98 23 160 21 32 42 60 47 63 16 9 10 43 -10 54 -31
16 -55 12 -98 -17z m657 -268 c29 -31 50 -31 95 -1 31 22 40 23 68 14 48 -17
141 -93 187 -154 33 -44 40 -61 40 -98 0 -25 -5 -48 -11 -51 -5 -4 -14 -17
-20 -28 -12 -28 -27 -53 -61 -98 -16 -20 -28 -40 -28 -44 0 -3 -19 -32 -43
-63 -24 -31 -53 -73 -65 -93 -28 -47 -58 -73 -74 -65 -7 3 -25 14 -39 24 -14
9 -45 28 -67 42 -23 14 -42 30 -42 35 0 6 21 18 48 28 114 44 172 94 202 174
24 65 25 79 4 140 -22 65 -67 110 -132 130 -45 14 -60 15 -100 4 -97 -26 -158
-125 -119 -194 49 -89 108 -109 165 -58 42 39 43 78 2 124 -37 42 -37 53 -4
61 101 26 169 -71 128 -184 -23 -64 -69 -111 -133 -134 -47 -17 -52 -17 -111
0 -114 32 -190 134 -190 256 0 54 4 70 33 113 35 54 111 117 161 133 53 17 81
14 106 -13z m425 -551 c-7 -51 -20 -84 -69 -184 -27 -54 -37 -66 -60 -68 -15
-2 -34 2 -42 9 -18 15 -18 73 1 89 8 7 15 17 15 22 0 18 132 178 147 178 13 0
14 -8 8 -46z m-198 -306 c13 -12 23 -30 23 -40 0 -33 -138 -167 -188 -182 -36
-12 -38 18 -3 69 17 25 31 49 31 52 0 5 51 72 80 104 20 23 30 23 57 -3z"/>
<path d="M3938 5756 c-22 -9 -139 -100 -231 -180 -65 -55 -206 -135 -297 -167
-121 -43 -240 -10 -240 66 0 33 2 35 33 35 18 0 42 -7 54 -15 27 -19 44 -12
74 28 19 26 24 44 24 99 0 62 -2 70 -31 99 -30 29 -36 31 -107 31 -61 0 -80
-4 -104 -22 -53 -38 -68 -76 -68 -170 0 -79 2 -88 32 -131 33 -48 58 -68 133
-106 50 -26 129 -30 221 -13 77 15 141 -3 180 -50 45 -53 129 -168 129 -176 0
-3 13 -23 29 -43 15 -20 30 -40 32 -46 2 -5 34 -55 70 -110 36 -55 79 -122 95
-148 16 -27 37 -61 46 -75 10 -15 22 -36 28 -47 6 -11 19 -33 30 -50 32 -49
43 -70 96 -177 29 -57 57 -118 63 -137 16 -48 14 -117 -4 -151 -30 -59 -48
-28 -39 65 8 79 1 111 -28 119 -13 3 -51 44 -88 93 -91 121 -124 146 -196 146
-67 0 -84 -15 -84 -74 0 -28 6 -42 22 -53 31 -22 43 -20 82 14 42 37 58 32 87
-28 42 -89 48 -293 13 -422 -9 -30 -22 -77 -29 -105 -50 -187 -57 -283 -24
-355 29 -65 63 -89 126 -90 44 0 55 4 72 26 27 35 27 85 0 110 -19 17 -22 17
-47 1 -51 -31 -72 -40 -79 -33 -14 14 -6 126 12 168 18 44 80 172 102 211 6
12 28 38 48 57 27 26 39 32 51 25 13 -9 15 -40 14 -216 -1 -323 -28 -466 -92
-497 -16 -7 -54 -18 -85 -23 -78 -14 -165 -39 -180 -51 -20 -16 -15 -36 13
-55 24 -15 36 -15 124 -4 80 10 167 9 475 -4 344 -15 378 -15 401 0 26 17 32
52 14 86 -9 17 -22 19 -108 19 -130 0 -163 21 -199 127 -14 41 -17 111 -20
460 l-4 413 48 52 c137 149 228 238 245 238 13 0 26 -17 43 -56 37 -84 32
-157 -15 -204 -28 -28 -34 -26 -63 19 -32 48 -59 58 -92 37 -49 -32 -44 -86
11 -140 41 -40 42 -56 9 -92 -14 -16 -33 -43 -42 -62 -14 -29 -14 -38 -2 -75
27 -83 97 -163 122 -138 7 7 7 14 -1 23 -6 8 -18 34 -26 59 -23 68 -6 112 85
219 67 80 94 128 107 191 13 70 1 124 -52 224 -37 69 -37 71 -21 105 8 19 24
49 35 65 35 54 83 159 92 200 4 22 12 90 17 151 l8 112 64 82 c132 169 155
197 189 232 56 57 126 93 220 111 47 9 98 17 113 17 15 0 46 9 67 20 35 18 40
25 40 55 0 29 -5 37 -27 46 -19 8 -176 10 -498 7 -402 -4 -475 -7 -507 -21
-63 -26 -46 -59 37 -71 135 -21 198 -41 239 -77 l41 -37 -1 -81 c-2 -83 -17
-121 -50 -121 -7 0 -50 32 -96 71 -46 39 -95 81 -109 93 -43 36 -77 56 -96 56
-22 0 -73 45 -73 64 0 7 -9 21 -20 31 -23 21 -41 11 -65 -34 -13 -27 -59 -45
-155 -62 -25 -4 -75 -13 -112 -20 -60 -12 -71 -11 -110 6 -24 10 -50 25 -59
32 -61 51 -112 -73 -58 -141 20 -26 26 -27 78 -23 31 3 68 8 84 12 24 7 27 5
27 -19 0 -15 -8 -41 -17 -59 -26 -48 -24 -209 3 -257 33 -59 57 -93 89 -127
29 -30 249 -183 265 -183 4 0 15 -9 25 -20 15 -17 16 -24 6 -46 -25 -55 -76
-124 -93 -124 -16 0 -68 47 -68 62 0 4 -19 35 -42 70 -24 35 -48 73 -55 84
-20 32 -97 153 -115 182 -10 15 -22 36 -28 47 -13 24 -27 47 -62 101 -14 23
-35 56 -45 75 -10 19 -30 52 -44 74 -14 22 -29 47 -32 55 -4 8 -16 29 -26 45
-48 76 -92 175 -86 195 4 11 29 54 56 95 28 41 48 79 45 84 -12 19 -60 28 -88
17z m627 -286 c34 -33 40 -32 105 5 49 29 112 -4 213 -109 45 -46 77 -101 77
-131 0 -27 -36 -94 -82 -156 -16 -20 -28 -40 -28 -44 0 -4 -13 -24 -30 -45
-16 -21 -30 -41 -30 -44 0 -16 -114 -156 -127 -156 -15 0 -148 84 -158 100 -3
6 2 13 12 16 114 38 183 84 224 151 18 28 22 51 22 108 0 83 -19 124 -81 171
-33 26 -45 29 -112 29 -64 0 -80 -4 -105 -23 -46 -36 -65 -72 -65 -123 0 -38
6 -52 36 -87 47 -55 91 -58 141 -10 41 39 41 60 3 108 -45 57 -41 70 23 70 42
0 56 -5 71 -22 55 -63 37 -195 -34 -256 -34 -28 -91 -52 -128 -52 -80 0 -176
60 -215 135 -58 111 -47 196 38 292 25 29 52 53 59 53 6 0 18 6 24 12 13 13
74 35 102 37 8 1 28 -13 45 -29z m435 -519 c0 -10 -12 -49 -26 -87 -14 -38
-28 -78 -31 -89 -8 -27 -47 -87 -66 -103 -21 -18 -51 -7 -71 23 -15 23 -15 27
1 53 24 37 131 182 156 209 22 24 37 22 37 -6z m-205 -337 c14 -9 25 -25 25
-36 0 -19 -115 -141 -164 -173 -27 -18 -56 -14 -56 7 0 8 16 37 35 67 19 29
35 55 35 58 0 13 74 93 87 93 7 0 25 -7 38 -16z"/>
<path d="M7043 2750 c-18 -7 -166 -121 -183 -140 -12 -14 -129 -100 -136 -100
-4 0 -15 -6 -23 -14 -66 -57 -203 -106 -296 -106 -66 0 -73 2 -103 31 -34 33
-40 57 -20 77 17 17 41 15 77 -5 38 -22 56 -13 88 43 42 72 25 161 -37 198
-39 22 -147 22 -180 -1 -50 -34 -89 -112 -89 -179 -2 -87 74 -193 168 -235 41
-19 59 -21 176 -16 72 3 143 3 159 0 16 -4 48 -24 70 -47 34 -34 131 -167 171
-234 6 -9 22 -33 36 -52 14 -19 29 -42 32 -50 4 -8 29 -49 57 -90 27 -41 55
-84 60 -95 6 -11 18 -32 28 -47 18 -28 109 -178 128 -213 7 -11 28 -54 49 -95
20 -41 44 -88 52 -104 11 -20 16 -54 16 -103 -1 -72 -12 -103 -38 -103 -22 0
-25 28 -13 101 l12 71 -51 44 c-28 24 -68 70 -89 102 -66 100 -110 132 -182
132 -38 0 -53 -5 -70 -23 -31 -33 -29 -80 4 -106 34 -27 37 -27 77 9 19 17 41
30 50 30 37 0 73 -105 83 -241 8 -102 -3 -163 -72 -404 -12 -39 -18 -98 -18
-170 -1 -118 8 -145 58 -187 27 -21 95 -32 128 -19 35 13 54 85 32 118 -19 30
-39 29 -81 -3 -38 -28 -45 -27 -63 15 -10 25 -9 40 6 88 50 166 183 377 216
345 21 -21 14 -494 -9 -587 -28 -116 -52 -138 -165 -154 -72 -10 -147 -30
-165 -44 -20 -15 -15 -45 11 -62 20 -13 36 -14 121 -3 76 9 162 9 389 0 412
-17 479 -16 499 6 24 26 21 68 -5 86 -17 12 -48 16 -118 16 -96 0 -96 0 -126
32 -71 77 -76 126 -67 619 l6 367 131 136 c72 75 136 136 143 136 6 0 22 -17
35 -37 19 -32 23 -52 23 -119 0 -67 -4 -86 -19 -103 -27 -30 -58 -23 -75 17
-18 39 -53 51 -90 31 -20 -11 -27 -24 -29 -55 -3 -35 2 -45 44 -88 38 -40 44
-51 33 -60 -8 -6 -29 -30 -47 -52 -38 -49 -41 -91 -12 -149 24 -48 79 -107 94
-102 14 5 9 45 -10 74 -19 30 -18 78 3 116 10 18 47 68 82 112 120 151 138
237 76 369 -19 41 -39 78 -45 81 -18 11 -11 56 18 103 15 26 32 56 39 67 61
104 82 178 83 288 0 84 3 104 25 148 14 27 41 66 59 87 18 20 50 60 71 87 81
108 161 182 235 216 19 9 82 24 140 34 158 25 211 58 173 109 -27 37 -78 40
-543 32 -437 -6 -511 -14 -518 -50 -6 -27 9 -36 74 -46 174 -26 229 -50 263
-110 31 -56 23 -156 -15 -195 -20 -20 -39 -10 -124 65 -113 99 -170 139 -211
150 -22 6 -43 19 -46 28 -12 32 -44 72 -59 72 -8 0 -24 -15 -34 -33 -21 -36
-35 -41 -202 -81 -114 -27 -192 -17 -253 34 -24 20 -54 2 -61 -36 -8 -42 0
-100 17 -120 19 -23 74 -27 130 -10 29 8 55 13 58 11 4 -5 -10 -57 -35 -130
-19 -55 -18 -102 5 -166 23 -65 37 -93 74 -141 26 -34 128 -118 143 -118 3 0
23 -13 44 -30 21 -16 40 -30 44 -30 3 0 26 -14 51 -32 29 -20 45 -39 45 -53 0
-33 -81 -145 -104 -145 -10 1 -76 82 -76 94 0 2 -19 33 -42 68 -24 35 -47 71
-53 80 -11 19 -89 143 -117 186 -10 15 -22 36 -28 47 -6 11 -19 34 -30 50 -11
17 -24 39 -30 50 -6 11 -19 34 -30 50 -11 17 -24 39 -30 50 -6 11 -19 34 -29
50 -24 37 -48 80 -95 170 -29 54 -35 76 -30 100 6 29 67 129 85 141 14 8 11
54 -3 54 -7 0 -22 2 -33 5 -11 2 -30 0 -42 -5z m625 -285 c36 -30 51 -31 85
-5 52 41 113 20 208 -71 72 -68 99 -113 99 -162 0 -25 -5 -49 -11 -52 -5 -4
-15 -17 -20 -28 -13 -30 -30 -56 -59 -97 -14 -19 -29 -42 -35 -52 -27 -46
-127 -186 -144 -202 -19 -18 -21 -17 -58 5 -61 36 -124 90 -118 100 4 5 14 9
24 9 69 0 196 100 224 176 21 61 22 92 1 146 -48 128 -204 176 -302 93 -50
-43 -70 -100 -52 -147 28 -71 84 -108 134 -88 67 25 85 86 40 139 -34 41 -29
65 15 69 46 5 79 -15 102 -60 43 -84 4 -181 -101 -251 -16 -11 -45 -17 -83
-17 -103 0 -184 59 -231 167 -29 65 -19 155 22 215 51 75 142 133 214 137 9 1
30 -10 46 -24z m436 -527 c-4 -13 -11 -36 -15 -53 -12 -48 -40 -119 -50 -129
-5 -6 -9 -17 -9 -25 -1 -17 -23 -46 -52 -69 -27 -21 -68 11 -67 52 1 45 148
246 181 246 16 0 18 -4 12 -22z m-186 -349 c16 -25 -4 -55 -84 -128 -100 -92
-157 -104 -114 -25 44 82 92 149 124 175 23 20 54 10 74 -22z"/>
<path d="M175 2731 c-77 -35 -105 -89 -104 -196 1 -70 8 -89 56 -144 70 -81
169 -119 263 -101 29 6 82 10 119 10 63 0 68 -2 113 -40 45 -39 300 -405 358
-515 6 -11 18 -32 28 -47 42 -65 150 -247 171 -288 12 -25 26 -52 30 -60 25
-47 32 -64 46 -102 19 -55 19 -121 0 -158 -32 -61 -47 -31 -39 78 l6 77 -32
20 c-18 11 -65 64 -106 117 -59 78 -83 101 -120 118 -55 24 -66 25 -103 5 -42
-21 -57 -65 -37 -104 22 -42 64 -42 107 0 l32 31 20 -20 c11 -11 28 -44 39
-74 27 -75 30 -297 4 -383 -83 -283 -95 -393 -53 -475 28 -55 63 -81 119 -87
40 -5 47 -2 71 27 33 39 37 94 7 110 -24 13 -66 4 -74 -16 -3 -8 -16 -14 -30
-14 -19 0 -26 7 -31 29 -8 36 1 92 22 146 70 178 162 305 203 280 15 -9 12
-401 -4 -515 -8 -52 -21 -111 -30 -132 -19 -44 -60 -78 -95 -78 -37 0 -160
-29 -198 -48 -34 -16 -43 -42 -20 -59 10 -8 410 -15 940 -18 85 0 97 7 97 57
0 44 -33 58 -145 61 l-97 2 -33 38 c-18 21 -35 50 -38 65 -3 15 -10 45 -16 67
-6 25 -11 187 -11 425 0 360 1 387 19 415 25 39 254 275 268 275 16 0 38 -32
56 -80 20 -53 22 -97 6 -137 -11 -29 -47 -73 -60 -73 -4 0 -19 20 -33 45 -23
39 -31 45 -60 45 -25 0 -38 -7 -50 -25 -27 -41 -20 -72 29 -124 l46 -49 -28
-33 c-15 -19 -30 -36 -33 -39 -13 -13 -30 -52 -30 -69 0 -29 34 -102 64 -139
30 -35 73 -45 61 -15 -33 84 -36 104 -23 141 13 39 66 117 118 173 57 62 75
114 74 209 0 76 -3 90 -30 135 -61 103 -60 101 -36 148 23 45 61 113 77 137
33 50 64 190 64 290 1 43 7 78 19 101 23 45 195 260 254 316 59 57 137 94 218
103 89 10 171 30 193 48 26 23 22 67 -9 87 -24 15 -64 16 -462 12 -497 -5
-577 -13 -577 -57 0 -20 6 -26 30 -28 17 -2 52 -10 79 -18 27 -8 62 -14 78
-14 39 0 124 -44 144 -75 35 -53 13 -225 -29 -225 -10 0 -66 44 -118 91 -63
59 -128 106 -184 135 -43 22 -64 39 -74 62 -19 43 -50 52 -71 21 -25 -39 -48
-58 -77 -64 -16 -3 -59 -13 -97 -22 -37 -9 -101 -16 -140 -17 -61 -1 -80 3
-123 26 -46 25 -51 26 -71 12 -18 -12 -22 -25 -22 -69 0 -48 3 -56 32 -80 33
-28 33 -28 141 -9 33 6 37 4 37 -16 0 -12 -5 -31 -11 -42 -25 -47 -35 -132
-23 -194 16 -84 36 -124 94 -187 44 -48 251 -198 303 -219 9 -4 17 -12 17 -18
0 -30 -86 -160 -105 -160 -11 0 -95 101 -95 114 0 3 -19 33 -43 68 -24 35 -46
70 -50 78 -4 8 -15 27 -25 42 -20 32 -98 155 -115 183 -7 10 -23 37 -37 60
-13 22 -30 49 -37 60 -7 11 -17 29 -23 40 -6 11 -19 34 -29 50 -11 17 -31 50
-44 75 -14 25 -34 61 -45 80 -26 44 -62 120 -62 131 0 15 33 72 73 126 43 58
42 57 21 77 -34 35 -92 12 -194 -78 -76 -66 -145 -118 -238 -178 -111 -72
-259 -114 -332 -95 -47 12 -80 44 -80 78 0 40 26 51 68 29 60 -33 108 6 118
96 9 70 -16 120 -70 145 -52 23 -90 23 -141 0z m1424 -283 l29 -33 48 33 c31
22 54 32 68 28 64 -16 202 -143 232 -215 13 -30 14 -42 3 -71 -16 -48 -204
-332 -259 -393 -29 -31 -28 -32 -125 31 -72 47 -70 49 46 102 105 47 151 116
151 226 -1 97 -27 141 -110 183 -78 40 -173 18 -226 -52 -52 -68 -23 -175 55
-207 26 -11 36 -10 64 3 43 20 69 59 61 91 -3 13 -20 37 -36 53 -29 28 -30 32
-15 47 26 26 80 20 116 -12 29 -26 31 -32 31 -98 1 -53 -4 -78 -18 -100 -58
-90 -144 -122 -249 -93 -57 16 -146 110 -162 172 -19 70 -16 112 13 172 38 81
149 164 222 165 24 0 40 -8 61 -32z m431 -506 c0 -19 -26 -100 -48 -152 -39
-88 -48 -106 -66 -127 -25 -30 -37 -29 -70 6 l-28 29 18 34 c21 36 125 179
157 215 21 24 37 22 37 -5z m-198 -349 c30 -27 22 -45 -49 -114 -80 -78 -129
-113 -144 -104 -13 8 -3 53 15 75 8 8 15 20 17 26 2 6 24 38 49 72 48 66 76
77 112 45z"/>
<path d="M3952 2720 c-23 -16 -73 -55 -110 -86 -37 -31 -76 -64 -87 -73 -38
-30 -140 -97 -185 -120 -25 -13 -54 -28 -65 -34 -29 -15 -125 -36 -167 -37
-67 0 -127 40 -128 86 0 39 23 47 78 28 58 -21 71 -15 103 47 25 50 24 95 -4
143 -34 61 -123 83 -202 50 -49 -20 -68 -40 -88 -92 -55 -139 29 -290 190
-341 41 -13 56 -13 211 5 84 10 133 -18 207 -119 33 -44 65 -89 70 -98 6 -10
33 -51 60 -91 28 -40 52 -77 55 -83 3 -5 23 -37 45 -70 45 -67 59 -91 75 -120
6 -11 18 -32 28 -47 18 -28 109 -178 128 -213 7 -11 28 -54 48 -95 21 -41 43
-88 51 -103 9 -17 15 -57 15 -101 0 -59 -4 -76 -19 -90 -40 -36 -52 7 -29 105
l12 52 -52 46 c-29 25 -71 75 -94 110 -76 113 -172 158 -237 112 -25 -18 -31
-29 -31 -60 0 -20 5 -42 12 -49 21 -21 72 -14 98 13 13 14 29 25 36 25 41 0
86 -143 88 -280 1 -89 -9 -140 -71 -360 -27 -95 -26 -282 2 -328 21 -34 89
-72 129 -72 48 1 89 74 71 129 -8 27 -53 28 -88 1 -30 -24 -31 -24 -51 -4 -33
32 -14 105 68 274 51 105 114 186 138 178 10 -4 14 -58 16 -244 2 -196 0 -255
-14 -327 -22 -107 -53 -152 -111 -160 -67 -8 -157 -29 -195 -45 -29 -11 -38
-21 -38 -39 0 -13 6 -26 13 -28 6 -2 236 -6 509 -9 542 -5 528 -7 528 50 0 17
-10 30 -32 44 -28 17 -44 19 -108 14 -68 -5 -78 -4 -110 18 -19 13 -46 46 -60
73 l-25 50 -3 409 c-2 225 -1 423 2 440 4 22 43 69 136 164 72 72 137 132 145
132 7 0 24 -17 37 -37 19 -31 23 -52 23 -115 0 -71 -3 -80 -27 -104 -30 -30
-53 -27 -68 8 -24 58 -56 72 -98 42 -17 -12 -22 -25 -22 -58 0 -38 5 -48 40
-80 22 -20 40 -39 40 -43 0 -3 -18 -30 -40 -59 -47 -63 -53 -111 -18 -171 27
-49 68 -93 85 -93 17 0 16 40 -2 64 -21 28 -19 89 5 133 11 21 45 68 75 103
30 36 69 93 85 128 41 86 40 139 -5 236 -19 41 -39 78 -45 81 -26 16 -8 76 50
170 64 103 90 191 90 305 0 87 3 99 29 145 16 28 59 86 95 129 36 43 66 82 66
85 0 3 19 27 43 52 84 92 197 149 292 149 50 0 142 27 168 49 28 23 18 61 -23
83 -33 19 -52 19 -430 14 -221 -3 -439 -11 -495 -18 -95 -12 -100 -14 -103
-38 -3 -23 2 -26 70 -43 40 -9 83 -17 95 -17 36 0 125 -39 150 -66 12 -13 27
-41 32 -62 16 -61 -14 -172 -46 -172 -10 0 -59 35 -109 78 -124 106 -152 126
-204 146 -35 13 -49 26 -65 58 -24 51 -43 58 -67 27 -10 -13 -24 -32 -32 -42
-14 -18 -69 -34 -206 -59 -98 -18 -132 -15 -190 15 -28 15 -58 27 -66 27 -15
0 -44 -50 -44 -76 0 -39 25 -83 55 -100 33 -17 55 -16 112 7 41 17 58 4 45
-32 -35 -89 -44 -134 -40 -187 6 -82 54 -176 120 -238 49 -47 238 -179 281
-196 27 -12 20 -47 -24 -115 -57 -86 -67 -84 -152 42 -37 55 -72 109 -78 120
-5 11 -17 32 -27 47 -25 39 -101 160 -115 183 -7 11 -23 38 -37 60 -14 22 -29
47 -33 55 -4 8 -16 29 -27 45 -11 17 -24 39 -30 50 -6 11 -19 34 -29 50 -24
37 -48 79 -95 170 -30 57 -36 77 -31 105 6 32 66 133 86 146 16 9 10 43 -10
54 -31 16 -53 12 -99 -20z m655 -270 c32 -36 42 -37 89 -5 20 14 42 25 49 25
49 0 168 -93 226 -176 43 -63 39 -93 -26 -202 -6 -9 -33 -50 -60 -90 -28 -40
-54 -81 -60 -91 -32 -54 -102 -140 -115 -141 -17 0 -160 89 -160 99 0 4 35 23
78 43 125 59 186 138 184 242 -2 85 -51 154 -134 187 -56 23 -80 23 -131 0
-123 -56 -143 -178 -41 -256 42 -32 67 -29 113 14 41 39 40 71 -5 120 l-35 40
31 16 c26 13 37 14 66 5 95 -32 103 -179 14 -268 -108 -107 -281 -62 -360 93
-29 57 -28 165 2 214 35 57 79 97 143 130 74 39 98 39 132 1z m428 -542 c-6
-44 -22 -89 -58 -168 -30 -66 -56 -100 -77 -100 -27 0 -59 45 -52 72 5 21 90
145 120 177 7 8 20 24 29 37 8 13 22 24 30 24 12 0 13 -9 8 -42z m-197 -314
c34 -24 27 -50 -30 -111 -88 -94 -168 -141 -168 -99 0 38 136 226 164 226 6 0
22 -7 34 -16z"/>
</g>
</svg>
